<svg id="SvgjsSvg1140" width="550" height="380" xmlns="http://www.w3.org/2000/svg" version="1.1" xmlns:xlink="http://www.w3.org/1999/xlink" xmlns:svgjs="http://svgjs.com/svgjs"><defs id="SvgjsDefs1141"></defs><g id="SvgjsG1142"><svg xmlns="http://www.w3.org/2000/svg" enable-background="new 0 0 4000 3000" viewBox="0 0 4000 3000" width="550" height="380"><path fill="#d3e8f9" d="M2325.4,479.5c-532.5,0-623.2,620.6-1222.9,620.6s-766.2,1175.8,817,1175.8
		C3915.6,2275.9,3539.5,479.5,2325.4,479.5z" class="colord3e8f9 svgShape"></path><path fill="#87b4de" d="M2931.8,2552.7c0,0-196.7,138.4-694.8,138.4c-498.1,0-641.6-157.6-641.6-157.6l11.4-92.6
		c0,0,193-118.6,651.6-118.6c458.7,0,668.4,118.6,668.4,118.6L2931.8,2552.7z" class="color87b4de svgShape"></path><path fill="#1f3e76" d="M1232,632.1c0,0-68.3-90.8,119.8-234.8c0,0-29,54.1,0,92.9c0,0,8.5-85.2,53.4-118.5
		c44.9-33.2,248.4-65.7,273.6-62.6S1769,353,1769,353s-292.2,368.6-493.6,301.6" class="color1f3e76 svgShape"></path><path fill="#3279af" d="M1352,549.5v-59l-0.2-0.6c-28.7-38.8,0.1-92.6,0.1-92.6c-188.1,144-119.9,234.8-119.9,234.8
		l43.4,22.5c84.3,28,184.8-20.3,272.8-85.9C1436,573.5,1352,549.5,1352,549.5z" class="color3279af svgShape"></path><path fill="none" stroke="#1f3e76" stroke-linecap="round" stroke-linejoin="round" stroke-miterlimit="10" stroke-width="10" d="M2931.8,2552.7c0,0-196.7,138.4-694.8,138.4c-498.1,0-641.6-158.1-641.6-158.1l11.4-93.1h0
		l147.1-1193.1c17.2-139.6,84.6-262,182.9-350.1s227.5-141.7,368.1-143.7c304.2-4.2,556.7,234,570.3,537.9l51.6,1149.9
		L2931.8,2552.7z" class="colorStroke1f3e76 svgStroke"></path><path fill="#3279af" d="M2926.8,2440.9c0,0-296.6,111.8-687,111.8s-633-111.8-633-111.8s193-118.7,651.7-118.7
		S2926.8,2440.9,2926.8,2440.9z" class="color3279af svgShape"></path><path fill="none" stroke="#1f3e76" stroke-linecap="round" stroke-linejoin="round" stroke-miterlimit="10" stroke-width="10" d="M2926.8,2440.9c0,0-296.6,111.8-687,111.8s-633-111.8-633-111.8" class="colorStroke1f3e76 svgStroke"></path><line x1="1465.8" x2="1353.8" y1="1492.7" y2="2016" fill="none" stroke="#1f3e76" stroke-linecap="round" stroke-linejoin="round" stroke-miterlimit="10" stroke-width="10" class="colorStroke1f3e76 svgStroke"></line><line x1="1595.4" x2="1489.3" y1="1559" y2="2056" fill="none" stroke="#1f3e76" stroke-linecap="round" stroke-linejoin="round" stroke-miterlimit="10" stroke-width="10" class="colorStroke1f3e76 svgStroke"></line><line x1="2330.2" x2="2274.4" y1="753.5" y2="2552.4" fill="none" stroke="#1f3e76" stroke-linecap="round" stroke-linejoin="round" stroke-miterlimit="10" stroke-width="10" class="colorStroke1f3e76 svgStroke"></line><path fill="none" stroke="#1f3e76" stroke-linecap="round" stroke-linejoin="round" stroke-miterlimit="10" stroke-width="10" d="M2519.3 792.3c0 0 90.8 72.5 105.1 615.6 14.2 543.1-6.3 1111.3-6.3 1111.3M2014.3 2088.6c-12.2 249.6-21.6 448.8-21.6 448.8M2156 775.4c0 0-78.2 113.9-98.6 470.8-4.2 73.2-9.4 170.8-15 279.6M1770.9 2064.4c-17.4 234-29.2 423-29.2 423M1978.5 863.1c0 0-90.4 124.3-137.4 454.3-9 63.1-18.2 144.9-27.1 235.8M2717.6 924.9c0 0 57.1 158.3 81.7 392.5s37.9 1152 37.9 1152" class="colorStroke1f3e76 svgStroke"></path><path fill="none" stroke="#1f3e76" stroke-linecap="round" stroke-linejoin="round" stroke-miterlimit="10" stroke-width="10" d="M2856.7,1170.5c0,0-200.5-97.8-554.4-97.8s-533.5,97.8-533.5,97.8s242.1,74.3,533.5,74.3
		S2856.7,1170.5,2856.7,1170.5z" class="colorStroke1f3e76 svgStroke"></path><path fill="none" stroke="#87b4de" stroke-linecap="round" stroke-linejoin="round" stroke-miterlimit="10" stroke-width="10" d="M1375.6,1709.1c0,0-140.4,0.2-262.4-229.7s2.1-372.2,97.5-357.8s95.9,197.9-39.5,189
		c-84.3-5.5-253.7-204-84.6-468.4" class="colorStroke87b4de svgStroke"></path><path fill="#87b4de" d="M1163.4,789.8c0,0,193.3-289.3,515.4-418.1c0,0-177.7,29.8-446.8,260.4
		C1170.5,684.8,1163.4,789.8,1163.4,789.8z" class="color87b4de svgShape"></path><path fill="none" stroke="#1f3e76" stroke-linecap="round" stroke-linejoin="round" stroke-miterlimit="10" stroke-width="10" d="M2286.9 751.8c0 0-43.2-30.1-43.2-71.1 0-41 23.4-80.5 84.9-80.5 61.4 0 78.5 42 78.5 81.1 0 39.2-47.9 71.6-47.9 71.6M1655.8 2043.3c0 0 276.4-27.3 635.2-27.3s618.2 32.9 618.2 32.9-192.8 47.7-620.7 47.7S1655.8 2043.3 1655.8 2043.3s-61.2 42.3-227.4 0c-166.2-42.3-210.9-162.5-210.9-162.5l146.3-490.8c0 0 66.9 93.7 166.9 143.8 100 50.1 183.3 37.1 183.3 37.1s229.9-55 592.5-55 581.2 55 581.2 55-243.9 25.8-583.8 25.8-590-25.8-590-25.8" class="colorStroke1f3e76 svgStroke"></path></svg></g></svg>
